<svg xmlns="http://www.w3.org/2000/svg" xmlns:xlink="http://www.w3.org/1999/xlink" width="850.761" height="615.42" viewBox="0 0 850.761 615.42">
  <defs>
    <linearGradient id="linear-gradient" x1="0.493" y1="1" x2="0.493" gradientUnits="objectBoundingBox">
      <stop offset="0" stop-color="gray" stop-opacity="0.251"/>
      <stop offset="0.54" stop-color="gray" stop-opacity="0.122"/>
      <stop offset="1" stop-color="gray" stop-opacity="0.102"/>
    </linearGradient>
    <linearGradient id="linear-gradient-2" x1="0.5" y1="1" x2="0.5" y2="0" xlink:href="#linear-gradient"/>
  </defs>
  <g id="growth_analytics_8btt" transform="translate(0 -0.05)">
    <path id="Path_1" data-name="Path 1" d="M500.59,135.41l-15.52,9.85,9.42-17.14a15.35,15.35,0,0,0-9.38-3.35h-.25a18.091,18.091,0,0,1-3.22-.23l-5.26,3.33,2.25-4.1a18.72,18.72,0,0,1-9.2-7l-9.41,6L466,111.94c-5.5-6.6-12.92-10.66-21.09-10.66-9.79,0-18.51,5.83-24.14,14.9a18,18,0,0,1-16,8.6h-.52c-10.81,0-19.57,12.26-19.57,27.37s8.76,27.37,19.57,27.37a14.71,14.71,0,0,0,6.81-1.7c7.05-3.67,16.31-3.74,23.69-.47a24.71,24.71,0,0,0,20.14,0,28.27,28.27,0,0,1,23.47.45,14.72,14.72,0,0,0,6.75,1.67c10.81,0,19.57-12.25,19.57-27.37a34.77,34.77,0,0,0-4.09-16.69Z" transform="translate(-144.301 -80.5)" fill="#f2f2f2"/>
    <path id="Path_2" data-name="Path 2" d="M471.34,175.46a28.9,28.9,0,0,0-16.77,1.83,24.69,24.69,0,0,1-20.13,0,28.25,28.25,0,0,0-23.69.46,14.6,14.6,0,0,1-6.81,1.71c-9.61,0-17.59-9.67-19.26-22.43a18.43,18.43,0,0,0,4.8-5.18c5.63-9.07,14.35-14.89,24.14-14.89s18.41,5.75,24,14.73a18.52,18.52,0,0,0,15.95,8.76h.25C461.5,160.4,468.12,166.53,471.34,175.46Z" transform="translate(-142.236 -80.5)" opacity="0.03"/>
    <path id="Path_3" data-name="Path 3" d="M368.13,561.77l-6.29-3.91c-.6-.37-1.19-.77-1.79-1.15a59.86,59.86,0,0,0,6.05-116.62l.31,24.66-13.55-26.83h-.17a59.87,59.87,0,0,0-62.58,57c-.06,1.15,0,2.27,0,3.4-4.71-5.38-9-11.15-11.83-17.47-5.73-12.79-5.84-27.28-5.39-44.9.9-34.9,2.41-70.08,4.37-105.14a59.85,59.85,0,0,0,53.16-56.64c.08-1.83.05-3.63,0-5.43a8.6,8.6,0,0,0-.07-1.34c-.12-1.74-.28-3.46-.55-5.16a4.554,4.554,0,0,0-.15-.82c-.24-1.44-.54-2.86-.88-4.26-.13-.53-.26-1.05-.4-1.57-.42-1.53-.88-3-1.42-4.52-.18-.49-.39-1-.58-1.46-.42-1.09-.88-2.17-1.37-3.23-.26-.56-.51-1.12-.78-1.67-.08-.14-.13-.29-.21-.43h0a59.84,59.84,0,0,0-70.28-30.36l.4,32.1-13.4-26.52A59.57,59.57,0,0,0,212.12,284h-.06c.09.43.22.84.32,1.26.19.79.39,1.57.61,2.35.28,1,.6,2,.93,3,.25.74.49,1.47.77,2.2.41,1.06.87,2.09,1.33,3.12.27.6.51,1.22.8,1.81q1.14,2.32,2.48,4.53c.31.52.66,1,1,1.51.64,1,1.28,2,2,2.93.43.59.89,1.16,1.34,1.73.66.83,1.33,1.65,2,2.44.49.57,1,1.12,1.51,1.66.74.78,1.49,1.53,2.27,2.26.52.49,1,1,1.57,1.46.88.79,1.8,1.53,2.73,2.26.47.37.93.75,1.41,1.11q2.13,1.5,4.39,3c.28.17.59.31.87.48,1.27.74,2.55,1.45,3.87,2.09.57.28,1.15.53,1.73.79,1.08.48,2.17.95,3.29,1.38l2,.7c1.1.37,2.22.72,3.35,1,.66.18,1.33.37,2,.53,1.22.29,2.47.53,3.73.75l.24.05q-1.23,22.19-2.2,44.39a59.83,59.83,0,0,0-83.07-26l10.58,29-21.77-20.9a59.66,59.66,0,0,0-19.34,41.34,58.5,58.5,0,0,0,1.52,16.49A59.84,59.84,0,0,0,256.36,431c0,1.5-.1,3-.14,4.51-.4,15.54-.9,34.88,6.85,52.15,5.25,11.7,13.69,21.21,22,29.73,5.43,5.54,11.06,10.91,16.83,16.1a60.089,60.089,0,0,0,21.62,18c9.48,7.3,19.3,14.17,29.45,20.51l6.34,3.94c5.7,3.53,11.54,7.16,17.26,10.93-1-.1-2-.21-3-.26a59.89,59.89,0,0,0-58.94,39L352.05,656l-41.14-9.54a59.89,59.89,0,0,0,85.82,53.92L394,703.83q-2.76,3.43-5.45,6.82c-24.34,30.83-31.11,60.09-19.06,82.4l14.66-7.91C372.37,763.42,390,735.62,401.57,721q2.64-3.33,5.36-6.7c15.55-19.32,33.17-41.22,32.74-68.08C439,605.71,399.71,581.35,368.13,561.77Z" transform="translate(-86 -204.03)" fill="#f2f2f2"/>
    <path id="Path_4" data-name="Path 4" d="M639.07,443.113l7.84-4.049c.75-.39,1.48-.83,2.23-1.195-34.542-4.929-60.308-29.123-61.95-58.173a52.444,52.444,0,0,1,6.45-28.211c9.078-16.781,26.659-29.357,48-34.335l-.39,25.531,16.87-27.771h.2c41.2-1.591,76.163,24.831,78.09,59.019.07,1.186,0,2.348,0,3.518,5.89-5.568,11.23-11.542,14.76-18.08,7.16-13.276,7.3-28.211,6.73-46.465-1.12-36.135-3-72.544-5.45-108.837-36.47-3.367-64.584-28.225-66.32-58.638-.1-1.892-.07-3.759,0-5.617a10.874,10.874,0,0,1,.09-1.394,52.189,52.189,0,0,1,.67-5.335c.05-.29.13-.573.19-.83q.46-2.24,1.11-4.414c.16-.539.32-1.087.49-1.659.53-1.577,1.1-3.145,1.77-4.671.22-.514.48-1,.72-1.51.54-1.137,1.11-2.249,1.72-3.319.32-.573.63-1.153,1-1.726.08-.141.16-.3.25-.44h0c16.257-26.66,53.144-39.879,87.68-31.422l-.5,33.19,16.72-27.448c28.213,13.386,42.66,40.436,35.66,66.769h.08c-.11.44-.28.83-.4,1.3-.24.83-.49,1.659-.76,2.431-.35,1.037-.75,2.049-1.16,3.062-.31.763-.61,1.527-1,2.282-.51,1.1-1.08,2.166-1.66,3.228-.34.622-.64,1.261-1,1.875-1,1.6-2,3.17-3.09,4.688-.38.539-.82,1.045-1.23,1.568-.8,1.029-1.61,2.041-2.48,3.029-.54.614-1.11,1.195-1.67,1.792-.82.83-1.65,1.709-2.53,2.531q-.92.83-1.89,1.718c-.91.83-1.86,1.577-2.82,2.34-.65.506-1.29,1.021-2,1.51-1.11.83-2.25,1.577-3.42,2.332-.58.382-1.15.788-1.75,1.153-1.77,1.079-3.59,2.108-5.48,3.062-.35.174-.73.324-1.09.5q-2.35,1.162-4.82,2.166c-.71.29-1.44.539-2.16.83-1.35.506-2.71.987-4.1,1.427-.82.257-1.64.5-2.46.73-1.38.39-2.77.738-4.18,1.062-.83.191-1.66.382-2.51.556-1.53.3-3.08.548-4.65.772l-.31.05q1.56,22.976,2.75,45.959c8.995-15.333,25.213-26.909,44.829-32a88.348,88.348,0,0,1,58.811,5.114L866.44,252.68l27.15-21.631c14.563,11.044,23.242,26.436,24.13,42.79a50.615,50.615,0,0,1-1.89,17.01c-6.987,24.734-31.464,43.421-61.751,47.143s-60.242-8.275-75.569-30.266c0,1.552.13,3.12.18,4.671.5,16.089,1.12,36.11-8.54,53.983-6.55,12.122-17.09,21.955-27.51,30.775q-10.17,8.613-21,16.669a73.514,73.514,0,0,1-27,18.611q-17.745,11.338-36.74,21.241l-7.9,4.091c-7.11,3.651-14.39,7.41-21.54,11.309,1.26-.1,2.5-.216,3.78-.266,32.478-1.259,62.208,15.053,73.53,40.342l-46.66,31.53,51.33-9.866c-.036,21.3-13.244,41.091-34.981,52.42s-48.96,12.608-72.1,3.388c1.16,1.195,2.31,2.39,3.47,3.576,2.29,2.365,4.58,4.721,6.81,7.061,30.36,31.9,38.81,62.231,23.77,85.3l-18.28-8.19c14.63-22.486-7.38-51.261-21.81-66.379-2.19-2.3-4.43-4.613-6.68-6.937-19.4-20-41.39-42.665-40.85-70.47C550.62,488.591,599.66,463.376,639.07,443.113Z" transform="translate(-210.551 -80.5)" fill="#f2f2f2"/>
    <path id="Path_5" data-name="Path 5" d="M787.421,268.71V619.29c0,3.982-2.443,7.21-5.457,7.21H241.109a4.887,4.887,0,0,1-3.856-2.112,8.516,8.516,0,0,1-1.593-5.1V268.71a8.516,8.516,0,0,1,1.593-5.1,4.887,4.887,0,0,1,3.856-2.112H781.964C784.978,261.5,787.421,264.728,787.421,268.71Z" transform="translate(-86 -140.275)" fill="#3f3d56"/>
    <path id="Path_6" data-name="Path 6" d="M787.421,266.31V282.5H235.66V266.31c0-2.656,1.63-4.81,3.641-4.81h544.48C785.791,261.5,787.421,263.654,787.421,266.31Z" transform="translate(-86 -111.634)" fill="#cbceda"/>
    <circle id="Ellipse_1" data-name="Ellipse 1" cx="5" cy="5" r="5" transform="translate(160.66 154.488)" fill="#6c63ff"/>
    <circle id="Ellipse_2" data-name="Ellipse 2" cx="5" cy="5" r="5" transform="translate(174.66 154.488)" fill="#6c63ff"/>
    <circle id="Ellipse_3" data-name="Ellipse 3" cx="5" cy="5" r="5" transform="translate(188.66 154.488)" fill="#6c63ff"/>
    <path id="Path_7" data-name="Path 7" d="M847.48,517.47v60.18l-495.2.27-.45-120.3c5.23,15.41,18.14,18.18,40.87-9,55.55-66.34,131.06-83.8,189.51-85.63,40-1.26,79.91,7,118,23.41,15.82,6.83,78.34,14.18,119.6,17.46a29.9,29.9,0,0,1,27.55,29.74Z" transform="translate(-174.504 -147.068)" fill="#6c63ff" opacity="0.2"/>
    <path id="Path_8" data-name="Path 8" d="M847.48,458.62v119.6H351.83v-26C366,548.65,419,534.92,444.41,497c30.4-45.4,71.72-57.34,103.69-58.59,21.91-.87,43.72,4.76,64.54,16,23.42,12.64,68.57,27.89,102.87-16.38,37.94-48.95,96.22-8.61,111,6.22C831.79,449.49,847.48,458.62,847.48,458.62Z" transform="translate(-174.504 -152.217)" fill="#6c63ff" opacity="0.2"/>
    <path id="Path_9" data-name="Path 9" d="M265.83,251.28V495.84H761.48" transform="translate(-88.504 -62.773)" fill="none" stroke="#6c63ff" stroke-miterlimit="10" stroke-width="2"/>
    <line id="Line_1" data-name="Line 1" y1="149.09" transform="translate(271.681 274.143)" fill="none" stroke="#6c63ff" stroke-miterlimit="10" stroke-width="1"/>
    <line id="Line_2" data-name="Line 2" y1="188.97" transform="translate(321.469 237.956)" fill="none" stroke="#6c63ff" stroke-miterlimit="10" stroke-width="1"/>
    <line id="Line_3" data-name="Line 3" y1="207.94" transform="translate(371.256 220.937)" fill="none" stroke="#6c63ff" stroke-miterlimit="10" stroke-width="1"/>
    <line id="Line_4" data-name="Line 4" y1="213.82" transform="translate(421.044 215.69)" fill="none" stroke="#6c63ff" stroke-miterlimit="10" stroke-width="1"/>
    <line id="Line_5" data-name="Line 5" y1="207.28" transform="translate(470.832 221.526)" fill="none" stroke="#6c63ff" stroke-miterlimit="10" stroke-width="1"/>
    <line id="Line_6" data-name="Line 6" y1="183.09" transform="translate(520.62 243.258)" fill="none" stroke="#6c63ff" stroke-miterlimit="10" stroke-width="1"/>
    <line id="Line_7" data-name="Line 7" y1="170.67" transform="translate(570.407 254.497)" fill="none" stroke="#6c63ff" stroke-miterlimit="10" stroke-width="1"/>
    <circle id="Ellipse_4" data-name="Ellipse 4" cx="11.12" cy="11.12" r="11.12" transform="translate(260.997 276.168)" fill="#6c63ff"/>
    <circle id="Ellipse_5" data-name="Ellipse 5" cx="11.12" cy="11.12" r="11.12" transform="translate(310.555 244.784)" fill="#6c63ff"/>
    <circle id="Ellipse_6" data-name="Ellipse 6" cx="11.12" cy="11.12" r="11.12" transform="translate(360.114 229.63)" fill="#6c63ff"/>
    <circle id="Ellipse_7" data-name="Ellipse 7" cx="11.12" cy="11.12" r="11.12" transform="translate(409.664 224.217)" fill="#6c63ff"/>
    <circle id="Ellipse_8" data-name="Ellipse 8" cx="11.12" cy="11.12" r="11.12" transform="translate(459.222 229.63)" fill="#6c63ff"/>
    <circle id="Ellipse_9" data-name="Ellipse 9" cx="11.12" cy="11.12" r="11.12" transform="translate(508.781 250.188)" fill="#6c63ff"/>
    <circle id="Ellipse_10" data-name="Ellipse 10" cx="11.12" cy="11.12" r="11.12" transform="translate(558.339 261.014)" fill="#6c63ff"/>
    <ellipse id="Ellipse_11" data-name="Ellipse 11" cx="425.381" cy="21" rx="425.381" ry="21" transform="translate(0 573.47)" fill="#3f3d56"/>
    <path id="Path_10" data-name="Path 10" d="M143.54,433.22a4.67,4.67,0,0,1-.81,2.42c4-.12,7.55-2.75,11.24-4-.66,3.88,0,8.48.5,11.78a49.16,49.16,0,0,0,2.38,9.39c2.53,10.87,7.14,21.56,11.27,32a64.311,64.311,0,0,1,4,12.87c2.81,16.85-6.91,33.15-8.75,50.12a9.51,9.51,0,0,0,0,2.82,3.592,3.592,0,0,0-.44.57c-6.79,10.42-5.91,27.86-4.69,40.2s5.13,24.24,8.82,36.09a70.671,70.671,0,0,1,2.57,10,66.429,66.429,0,0,1,.28,14c-1.22,21.71-4.28,43.61-.67,65,2.63,15.59,8.37,29.77,9,45.56a7.67,7.67,0,0,1,2.2-3l1.08,41.47a2.41,2.41,0,0,0,.78,2.1c.77.49,1.77,0,2.68-.13,2.64-.32,4.33,2.55,6.08,4.54,2.63,3,6.68,4.42,10.65,4.73a46.826,46.826,0,0,0,11.9-1.08c1.83-.33,3.77-.71,5.14-2a6.37,6.37,0,0,0,1.74-5.49c-.78-6.11-7.36-9.59-10.67-14.8-3.91-6.16-3-14.41-6.82-20.64-1.31-2.13-3.12-3.93-4.29-6.14a24.5,24.5,0,0,1-1.39-4.22,12.27,12.27,0,0,1,3.34,1.59c-.36-3.24-.73-6.49-1.09-9.74l-.16-1.4c-.49-4.39-1-8.77-1.36-13.17-1.23-14.48,2.88-28.67,0-42.92-.6-3,.36-6.13,1.25-9.08A226.281,226.281,0,0,0,208.49,631c.36-6.18.35-12.14,2.33-18,2.32,9.45,9.49,16.9,14,25.57,2.78,5.4,4.51,11.3,7.54,16.56,1.46,2.56,3.24,5,4.17,7.78,1.44,4.35.68,9.07,0,13.61-3.25,23.5-2.87,47.42-1.83,71.12a112.68,112.68,0,0,1-6.21,26.55c-1.24,3.38-2.59,7.32-.67,10.37a10.691,10.691,0,0,0,3,2.8,70.6,70.6,0,0,0,8.94,5.41,4.62,4.62,0,0,0,3.13.72,7.19,7.19,0,0,0,1.9-1c2.43-1.46,5.57-1.23,8.25-.29s5.1,2.51,7.7,3.64A26.28,26.28,0,0,0,278,797.06c2.42-.67,5-1.95,5.75-4.32s-.63-4.87-2.54-6.43-4.27-2.4-6.46-3.54a26.52,26.52,0,0,1-11.23-11.21,52.069,52.069,0,0,1-3.54-9.87q-1.74-6.12-3.47-12.24a17.245,17.245,0,0,1,1.88,1.43c1.63-20.2,3.28-40.46,7.61-60.26,2.07-9.47,4.77-19.06,3.72-28.69-.55-5.06-2.13-9.95-3.63-14.82q-7-22.79-12.26-46.06a15.5,15.5,0,0,0,3-5,36.85,36.85,0,0,0,1.83-10.6,509.921,509.921,0,0,0-.2-73c-.46-6.16-1.18-12.63-3.6-18.23h1.42c-1.69,0-4.45-16.78-4.78-18.65-1.13-6.48-1.92-13-3.09-19.47-.57-3.15-1.21-6.3-2-9.4-.54-2.06-2.7-14.85-4.42-16.28a2.139,2.139,0,0,0-.62-.36,12.22,12.22,0,0,0-5.31-6.9c-2.77-1.56-6.07-1.61-9.3-1.36q-1.37-2-2.74-3.95a23.11,23.11,0,0,1-3.79-7.19,17.581,17.581,0,0,1-.46-3.32c0-.75-.05-1.5-.08-2.25v-1.13a18.533,18.533,0,0,0-.24-2.23h0c-.1-.61-.25-1.2-.41-1.8-.07-.25-.16-.51-.24-.76-.46-1.51-1-3-1.4-4.52-1.23-4.91-.61-10.06-.42-15.12s-.14-10.42-3-14.64c-2.09-3.1-5.44-5.45-6.56-9-.53-1.69-.5-3.55-1.28-5.15a8.54,8.54,0,0,0-4.56-3.82c-2.26-1-6.8-2.32-9.23-1.15a3.59,3.59,0,0,0-1.18.94c-2.57.13-5.16.48-7.42-.65-1.74-.87-3-2.52-4.69-3.47-4-2.24-9.1,0-12.66,2.92a36.5,36.5,0,0,0-11.87,17.88c-1.58,5.41-2.22,11.73-6.75,15.14-1.88,1.41-4.3,2.19-5.67,4.08a10.39,10.39,0,0,0-1.5,5.09c-.47,4.1-.86,8.32.23,12.3.82,3,2.43,5.68,3.43,8.6A22.65,22.65,0,0,1,138,432.27a7.47,7.47,0,0,0,5.54.95ZM239.7,554.55a10.76,10.76,0,0,0,5.39-7.17c.11.39.2.78.3,1.17a27.77,27.77,0,0,1-.75,15.78,56.762,56.762,0,0,0-4.94-9.78Zm2-22.14a41.168,41.168,0,0,1-4.2-7.63c-1.54-4.32-1.19-9-.82-13.62a64.261,64.261,0,0,1,1.44-10.36,220.838,220.838,0,0,0,3.61,31.61Z" transform="translate(-86 -204.03)" fill="url(#linear-gradient)"/>
    <path id="Path_11" data-name="Path 11" d="M203,349.56a8.43,8.43,0,0,1,4.48,3.79c.76,1.59.74,3.44,1.26,5.12,1.1,3.54,4.4,5.88,6.44,9,2.78,4.19,3.11,9.53,2.92,14.55s-.79,10.15.42,15c.59,2.37,1.61,4.64,2,7.05.5,2.94.08,6,.81,8.89a22.91,22.91,0,0,0,3.73,7.14l6.51,9.52A73.783,73.783,0,0,1,223,427a15.33,15.33,0,0,0,4.64,7l-4.71-5.7a13.3,13.3,0,0,0-3.5-3.32c-1.73-1-3.77-1.14-5.71-1.53-3.74-.76-7.47-2.67-9.3-6-2.43-4.48-.88-10.1-2.23-15-1-3.58-3.46-6.53-5.16-9.84-3.84-7.47-3.61-16.29-4.81-24.62-.51-3.53-1.3-7-1.32-10.62,0-2.63.26-7.65,3-9C196.31,347.25,200.77,348.61,203,349.56Z" transform="translate(-86 -131.093)" fill="#3f3d56"/>
    <path id="Path_12" data-name="Path 12" d="M255.42,744.21l5,17.77a51.758,51.758,0,0,0,3.48,9.81,26.11,26.11,0,0,0,11,11.15c2.15,1.13,4.48,2,6.35,3.52s3.21,4.07,2.49,6.39-3.27,3.63-5.65,4.3a25.62,25.62,0,0,1-17-1.23c-2.55-1.13-4.93-2.69-7.56-3.62s-5.73-1.17-8.11.29a7.106,7.106,0,0,1-1.87,1,4.46,4.46,0,0,1-3.08-.71,68.668,68.668,0,0,1-8.79-5.38,10.393,10.393,0,0,1-2.9-2.78c-1.9-3-.56-7,.65-10.31a113.111,113.111,0,0,0,6.23-27.49,2.89,2.89,0,0,1,.91-2.23,2.82,2.82,0,0,1,1.44-.32l21.36-1" transform="translate(-86 -204.03)" fill="#575a89"/>
    <path id="Path_13" data-name="Path 13" d="M200.12,762c1.15,2.19,2.94,4,4.22,6.11,3.75,6.19,2.86,14.39,6.71,20.51,3.25,5.18,9.72,8.65,10.49,14.72a6.38,6.38,0,0,1-1.71,5.45c-1.35,1.25-3.26,1.62-5.06,1.94a45.223,45.223,0,0,1-11.69,1.08c-3.91-.31-7.89-1.75-10.47-4.71-1.73-2-3.38-4.83-6-4.5-.9.11-1.88.61-2.64.12a2.42,2.42,0,0,1-.76-2.08l-1.18-45.47c3.78-.41,10.33-1.91,14-.61C199.19,755.67,198.68,759.23,200.12,762Z" transform="translate(-86 -204.03)" fill="#575a89"/>
    <path id="Path_14" data-name="Path 14" d="M237.44,551.81c9.22,11.47,11.95,26.66,14.91,41.08q5.72,27.9,14.06,55.18a82.586,82.586,0,0,1,3.57,14.73c1,9.58-1.62,19.11-3.66,28.52-4.25,19.69-5.87,39.83-7.47,59.91A19.14,19.14,0,0,0,235.63,750c-1.08-24.21-1.57-48.67,1.71-72.69.62-4.51,1.37-9.2,0-13.52-.92-2.78-2.66-5.19-4.11-7.73-3-5.24-4.68-11.1-7.41-16.47-4.39-8.62-11.44-16-13.72-25.42-1.95,5.84-1.94,11.76-2.29,17.9a227.33,227.33,0,0,1-9,51.42c-.88,2.94-1.82,6-1.23,9,2.8,14.18-1.24,28.28,0,42.68.36,4.37.85,8.73,1.33,13.09l.16,1.4,1.08,9.68c-4-2.73-8.23-2.34-13.06-2.09a14.059,14.059,0,0,0-4.78.84A7.79,7.79,0,0,0,180,762.4c-.58-15.7-6.23-29.8-8.81-45.29-3.55-21.32-.55-43.1.66-64.68a67,67,0,0,0-.28-13.95,71.822,71.822,0,0,0-2.53-10c-3.62-11.78-7.47-23.61-8.67-35.88s-2.06-29.6,4.61-40c2.06-3.2,7.13-1.76,10.33-3.84a26.05,26.05,0,0,1,8.2-3.36C201,541.34,219.56,550.27,237.44,551.81Z" transform="translate(-86 -204.03)" fill="#3c354c"/>
    <path id="Path_15" data-name="Path 15" d="M205.87,409.47c.39,4.37,1.31,9.52,5.29,11.36,2.26,1,4.88.65,7.32,1.05,4.62.75,8.42,4.3,10.56,8.46s2.88,8.89,3.38,13.54c.62,5.83.82,12.15-2.38,17.06-2.58,4-7,6.39-11.64,7.62a32.45,32.45,0,0,1-27.11-5,60.77,60.77,0,0,1-10-9.86c-6.64-7.73-13.33-16.2-14.69-26.3-.16-1.15-.15-2.54.79-3.22a3.47,3.47,0,0,1,2.14-.42l6.37.11c1.61,0,3.43,0,4.53-1.21s1-2.75,1-4.23L181,399.94a2.66,2.66,0,0,1,.43-1.87,2.43,2.43,0,0,1,1.46-.63c3.51-.59,7.18,0,10.61-.95,3.27-.9,8.4-4.65,10.8-.8C206.3,399,205.54,405.74,205.87,409.47Z" transform="translate(-86 -138.872)" fill="#ffc1c7"/>
    <path id="Path_16" data-name="Path 16" d="M205.87,409.47c.39,4.37,1.31,9.52,5.29,11.36,2.26,1,4.88.65,7.32,1.05,4.62.75,8.42,4.3,10.56,8.46s2.88,8.89,3.38,13.54c.62,5.83.82,12.15-2.38,17.06-2.58,4-7,6.39-11.64,7.62a32.45,32.45,0,0,1-27.11-5,60.77,60.77,0,0,1-10-9.86c-6.64-7.73-13.33-16.2-14.69-26.3-.16-1.15-.15-2.54.79-3.22a3.47,3.47,0,0,1,2.14-.42l6.37.11c1.61,0,3.43,0,4.53-1.21s1-2.75,1-4.23L181,399.94a2.66,2.66,0,0,1,.43-1.87,2.43,2.43,0,0,1,1.46-.63c3.51-.59,7.18,0,10.61-.95,3.27-.9,8.4-4.65,10.8-.8C206.3,399,205.54,405.74,205.87,409.47Z" transform="translate(-86 -138.872)" opacity="0.1"/>
    <circle id="Ellipse_12" data-name="Ellipse 12" cx="24.33" cy="24.33" r="24.33" transform="translate(79.51 229.163)" fill="#ffc1c7"/>
    <path id="Path_17" data-name="Path 17" d="M216,451.61c3.93.07,8.37-1,10.27-4.48,1.3-2.36,1.09-5.23.84-7.91l-1.41-15c3.82-.4,7.93-.74,11.26,1.15,4.43,2.51,6,8.07,6.52,13.13.93,9.5-.58,19.09-.06,28.62.44,8,2.29,16.26-.07,23.93-1,3.2-2.66,6.15-3.74,9.32a50.21,50.21,0,0,0-2,12.53c-.37,4.54-.72,9.24.8,13.54,1.27,3.6,3.75,6.63,5.52,10,2.9,5.58,3.52,13.1-.84,17.63-4,4.14-10.58,4.31-16.17,3s-11-3.81-16.7-4.05c-10.12-.43-19.14,6.14-29,8.27a9,9,0,0,1-4.05.14,10,10,0,0,1-3.26-1.78l-5.42-3.9a7.47,7.47,0,0,1-2.62-2.65,7.18,7.18,0,0,1-.34-3.8c1.82-16.88,11.37-33.08,8.61-49.83a64.35,64.35,0,0,0-3.92-12.8c-6.87-17.58-15.11-35.84-12.44-54.53.58-4.14,1.8-8.37,4.65-11.43s7.67-4.58,11.36-2.62,5,6.32,6.63,10.11a46.6,46.6,0,0,0,14.48,18.68c2.68,2.06,5.93,4.69,9.44,4.78C208,451.79,212,451.53,216,451.61Z" transform="translate(-86 -150.447)" fill="#ff6584"/>
    <path id="Path_18" data-name="Path 18" d="M251.24,489.41c5.9,6.55,7.06,16,7.71,24.78a509.619,509.619,0,0,1,.19,72.58,37.16,37.16,0,0,1-1.79,10.55c-1.26,3.35-3.62,6.45-6.94,7.79-2.13.86-5.1.63-6.06-1.46-.88-1.91.43-4,1.42-5.9a21.41,21.41,0,0,0,2.16-13.94c-1.21.88-1.64,2.47-2,3.93L244,595.86c-2.61-.38-3.59-3.57-4-6.17-.76-4.72-1.49-9.75.4-14.14,1-2.34,2.7-4.33,3.71-6.67,2.55-5.88,3.55-12.6,1.91-18.8a220.289,220.289,0,0,1-7.16-64.2,27.36,27.36,0,0,0,12.38,3.53Z" transform="translate(-86 -161.357)" fill="#ffc1c7"/>
    <path id="Path_19" data-name="Path 19" d="M256.81,496a89.813,89.813,0,0,0-21.52,2.84c-.93-4.58-.48-9.32,0-14l3.1-32c.23-2.37-.21-24.14,4.38-20.29,1.69,1.42,3.82,14.14,4.35,16.19.8,3.08,1.43,6.2,2,9.34,1.15,6.43,1.93,12.92,3,19.36C252.43,479.35,255.15,496,256.81,496Z" transform="translate(-86 -145.103)" fill="#ff6584"/>
    <path id="Path_20" data-name="Path 20" d="M199.12,353a4.31,4.31,0,0,0-.5-2.19,3.67,3.67,0,0,0-2.61-1.37c-3.52-.55-7.37.87-10.54-.74-1.72-.87-2.94-2.5-4.61-3.45-4-2.23-9,0-12.45,2.91a36.27,36.27,0,0,0-11.66,17.76c-1.56,5.38-2.19,11.67-6.64,15.06-1.85,1.4-4.23,2.18-5.58,4.06a10.35,10.35,0,0,0-1.47,5c-.46,4.08-.85,8.28.22,12.24.81,3,2.39,5.64,3.38,8.54a22.69,22.69,0,0,1-6.19,23.61,7.3,7.3,0,0,0,5.45.94,4.79,4.79,0,0,1-.79,2.41c5.69-.18,10.64-5.73,16.21-4.52,4.26.92,6.63,5.31,9.8,8.3,4.09,3.84,10.44,5.45,15.57,3.17s8.25-8.76,6.07-13.94c-2.48-5.89-10.13-8.22-12.78-14-2.05-4.5-.53-9.77-1-14.7-.37-4.23-2.2-8.18-3.34-12.28s-1.51-8.78.81-12.34c2.46-3.79,7.17-5.26,11.46-6.66C197.62,367.66,199.48,362.78,199.12,353Z" transform="translate(-86 -131.615)" fill="#3f3d56"/>
    <path id="Path_21" data-name="Path 21" d="M193.14,440.47c.69-3.4,1.38-7,.15-10.26-2.27-6-9.72-7.93-14.87-11.82a20.16,20.16,0,0,1-6.62-8.82c-.93-2.46-1.06-5.84,1.24-7.1a5.61,5.61,0,0,1,2.87-.51c8,.19,15.39,4.55,21.54,9.72,3.58,3,7,6.44,8.76,10.76a35.241,35.241,0,0,1,2,9.67L209.5,443a171.8,171.8,0,0,1,1.5,18.85,84.493,84.493,0,0,1-.68,10.79c-.32,2.54-.8,5.17-2.29,7.25-2.77,3.88-8.12,4.75-12.89,4.88a22.569,22.569,0,0,1-5.39-.34c-7.93-1.72-13.95-12.83-7.94-19.69,2.55-2.91,6.37-3,7.83-7C191.52,452.43,192,446,193.14,440.47Z" transform="translate(-86 -141.013)" fill="#ffc1c7"/>
    <path id="Path_22" data-name="Path 22" d="M186.69,442.38,193,452.61a4.69,4.69,0,0,1,.77,1.76c.17,1.33-.82,2.51-1.61,3.6-5.4,7.36-4,17.5-2.4,26.48a48,48,0,0,1-33.05-38.92c-.79-5.35-2.06-14.16,2.69-17.64C170.79,419.49,181.33,433.61,186.69,442.38Z" transform="translate(-86 -143.148)" fill="#ff6584"/>
    <path id="Path_23" data-name="Path 23" d="M218.48,421.88c-2.44-.4-5.06,0-7.32-1.05-4-1.84-4.9-7-5.29-11.36,0-.41-.05-.85-.07-1.32a36,36,0,0,1,4.63-4,22.76,22.76,0,0,1,4.73-2.09l4.42-1.55a25,25,0,0,1,1,3.59c.5,2.94.08,6,.81,8.89a22.91,22.91,0,0,0,3.73,7.14l6.51,9.52q-1.77-.42-3.51-.93C225.85,425.27,222.48,422.53,218.48,421.88Z" transform="translate(-86 -136.184)" fill="#3f3d56"/>
    <path id="Path_24" data-name="Path 24" d="M1101,464c-1.16-5.63-3.33-11-4.64-16.58a69.083,69.083,0,0,0-2.17-8.61,20.534,20.534,0,0,0-1.73-3.52l.62-.58c-2.06-3.48-2.14-7.84-3.11-11.8-.84-3.41-2.51-6.53-3.52-9.89-1.4-4.66-1.59-9.92-4.48-13.77-1.14-1.52-2.63-2.71-3.9-4.12-1.46-1.61-2.61-3.5-4.09-5.08-4.3-4.58-10.78-6-16.91-6.66s-12.47-.65-18.12-3.2c-2.37-1.07-4.87-2.6-7.35-2.42a35.378,35.378,0,0,1-3.83-4.35,59.207,59.207,0,0,1-5.12-7.25,26.687,26.687,0,0,0,2.74-6.44l.41-.29c1.61-1.22,3-2.81,4.58-4,1.39-1,3.18-2.05,3.33-3.83s-1.46-3.14-2.46-4.61c-3.61-5.27.38-13.52-3.32-18.73-1.85-2.61-5.08-3.6-8-4.87-4-1.76-7.57-4.29-11.54-6s-8.56-2.64-12.56-1c-7.48,3.1-10.17,13.75-17.77,16.53a3.73,3.73,0,0,0-2.11,1.25c-.93,1.52-2.16,10.47-1.94,12.32.29,2.45.88,3.66,2.57,4.52v1.58c0,12.73,8.82,23.3,20.45,25.48a17.7,17.7,0,0,1,2.82,3.93,15,15,0,0,1,1,4.75,2.88,2.88,0,0,0-1.34-.28,3.86,3.86,0,0,0-3.17,2.77,13.659,13.659,0,0,0-.49,4.52,3.07,3.07,0,0,1-.88,2.59,2.691,2.691,0,0,1-1.21.38,28.347,28.347,0,0,1-4.68.48c-2.6,0-5.39-.65-7.68.62s-3.33,4-4.43,6.47a40.059,40.059,0,0,1-6.23,9.75c-2.8,3.24-6.28,6.31-7.07,10.6a1.507,1.507,0,0,0,0,.3c-2.19,1-4.43,3.4-6,4.61q-4.517,3.5-8.67,7.43c-2.81,2.71-6.6,6.07-8.34,9.69a13.632,13.632,0,0,1-3.48,4c-2.85,1.85-6.53.87-9.74-.17-8.9-2.87-17.85-5.77-26.15-10.16a2.05,2.05,0,0,0-1.4-.35,1.531,1.531,0,0,0-.7.46,3.3,3.3,0,0,0-.22-.3c-2.24-2.42-5.76-2.58-7-6.28a21.764,21.764,0,0,1-.73-3.59,39.35,39.35,0,0,0-3.77-10.14,3.78,3.78,0,0,0-1.24-1.66,2.29,2.29,0,0,0-3,.95,5.58,5.58,0,0,0-.64,3.43c.08,1.3.27,2.81-.63,3.74a3.059,3.059,0,0,1-1.28.72c-2.89.94-6.07.1-8.77-1.31s-5.13-3.37-7.8-4.86a40.379,40.379,0,0,0-4.36-2.06c-1.54-.64-3.68-1.06-4.54.41-.69,1.18,0,2.69.8,3.81a30.388,30.388,0,0,0,4.65,5.28c5.2,4.65,11.75,7.24,17.85,10.48a91.07,91.07,0,0,1,15,10,7.74,7.74,0,0,0-.33,1.79,8.5,8.5,0,0,0,2.78,6.27,23.567,23.567,0,0,0,5.77,3.78q15.88,8.25,32,16.07a5.52,5.52,0,0,0,2.23.72c2.18.05,3.57-2.31,5.32-3.67s4-1.74,6.11-2.45c3.75-1.29,7-3.74,10.21-6.16l10.23-7.74c5.15-3.89,10.43-8,14.75-12.8a9.22,9.22,0,0,0,2.28,3c-.84,1.87.91,3.81,1.33,5.83a23.77,23.77,0,0,1,.11,4,36.643,36.643,0,0,0,1,5.77,55.073,55.073,0,0,1,.68,9.35c0,3.49.11,7,.16,10.48.07,4.52.14,9.09-.81,13.5-1.29,6-4.45,11.7-4.2,17.86a6.88,6.88,0,0,1-.33,3.42c-2.61,5-4.67,10.51-7.48,15.43a16.9,16.9,0,0,0-2,3.86,6.55,6.55,0,0,0,.4,4.27,14.522,14.522,0,0,0-1.83,6.51c-.19,5.65,2.08,11,3.17,16.57,1,5.11,1,10.35,1.15,15.56.77,24.38,5.54,48.48,6.53,72.85a236.693,236.693,0,0,1-1,33.68c-.73,7.22-1.81,14.42-2.21,21.68-1.15,20.6,3.15,41,7.42,61.2a8,8,0,0,1,5.08-2.75c-.52,2-1.21,4.6-1.93,6.52a7.57,7.57,0,0,0-2.94,1.06c-2.49,1.59-3.34,4.85-4.79,7.49-3.17,5.75-9.4,8.7-14.51,12.65-2.45,1.89-4.92,4.78-4.15,7.85,8.85,2.57,18.49,4.85,27,1.31,3.46-1.43,6.7-3.8,10.41-3.92,2.82-.09,5.7,1.14,8.4.3a3,3,0,0,0,1.66-1.15,4,4,0,0,0,.44-2,132.823,132.823,0,0,0-.06-14.11c-.23-4,.18-7-3.07-7.56a31.663,31.663,0,0,1-1.79-6.23,10.479,10.479,0,0,0-.14-1.21,14.873,14.873,0,0,0,2.67-.22,13.009,13.009,0,0,0,1.61-.38c-.17-.69-.32-1.39-.46-2.08-.28-1.39-.5-2.78-.68-4.17s-.31-2.8-.41-4.2c0-.71-.08-1.41-.11-2.12-.06-1.41-.08-2.82-.07-4.24s0-2.83.1-4.25.14-2.84.24-4.26c.24-3.55.59-7.1.94-10.62q1.53-15.51,3.08-31c.3-3.1.61-6.21.65-9.32a41.459,41.459,0,0,0-.26-5.57c-.53-4.48-1.94-9-2-13.42a18.162,18.162,0,0,1,.08-2.21,15.309,15.309,0,0,1,.37-2.2c.09-.4.21-.8.33-1.19.25-.79.53-1.56.78-2.35.13-.39.25-.79.36-1.19a27,27,0,0,0,.73-5.15c0-.58.07-1.16.1-1.74l1.23-24.38c.2-3.91.53-8.13,2.06-11.62a12.409,12.409,0,0,1,2.83-4.09c-.31-.83,0-2.23.86-2.45a206.491,206.491,0,0,1-.37,37.38c-.44,3.9-1.09,7.77-1.27,11.69-.38,8.64,1.53,17.19,2.2,25.81s0,17.5,0,26.25c-.07,15.05,1.59,30.05,3.24,45l1,.66c0,1.32.15,2.76.13,4a3.632,3.632,0,0,0,.13,1.28h-.42a6,6,0,0,0-4.7,3,19.11,19.11,0,0,0-2.13,5.5,11.452,11.452,0,0,0-.6,4.44c.38,2.85,2.8,5,3.44,7.8,1.17,5.07-3.8,10.54-1.54,15.2,1.44,3,5.07,3.83,8.24,4.35,4.84.79,10.35,1.42,14.16-1.79a9.43,9.43,0,0,0,3.25-7.24c0-3.66-2.17-6.92-3.12-10.44-1.34-4.94.66-11.58-1.45-16.14a3.87,3.87,0,0,0-.78-1.3h.72c-.17-1.67-.34-3.35-.52-5l1.68-.86c1.73-.87,3.73-1.53,5.53-.85-.67-8.59-.86-18.08,1.12-26.44,1.54-6.6,4.3-12.86,5.58-19.52a95.248,95.248,0,0,0,1.09-16.72c0-10.38,0-20.83-1.74-31-.7-4.08-1.7-8.26-.94-12.34.5-2.69,1.72-5.17,2.44-7.81,1.68-6.17.45-12.8,1.45-19.13,2.38-15.12,3.64-30.9,5.45-46.09a188.369,188.369,0,0,0,.92-25.92v-.1l3.59-7c2.57-5,5.18-10.08,6.74-15.45a10.252,10.252,0,0,1,1.29,2.45L1091.18,511a20.71,20.71,0,0,0,2.41-5c.36-1.27.48-2.6.75-3.89.71-3.35,2.41-6.37,3.77-9.49A48.171,48.171,0,0,0,1101,464Zm-23.61,13.16a105.006,105.006,0,0,1-3,12.75c-2.08,7.18-4.49,14.24-6.9,21.31l-2.07,6a25.269,25.269,0,0,1-3.18,6.81,14.071,14.071,0,0,0-.85,1.63c-2.14-8,.18-17-.31-25.53-.37-6.45-2.37-13-.87-19.25,1-4.21,3.52-7.83,5.29-11.77,1.65-3.66,2.68-7.65,4.54-11.18a.21.21,0,0,0,.07.19,91.838,91.838,0,0,0,5.93,12.61,10.249,10.249,0,0,1,1.45,3,8.741,8.741,0,0,1-.07,3.45Z" transform="translate(-263.239 -204.03)" fill="url(#linear-gradient-2)"/>
    <path id="Path_25" data-name="Path 25" d="M891.71,433.86a20.751,20.751,0,0,1-.76-3.6c-.65-3.59-2.31-6.9-3.94-10.17a3.711,3.711,0,0,0-1.29-1.67,2.47,2.47,0,0,0-3.1.95,5.511,5.511,0,0,0-.67,3.44c.09,1.32.29,2.83-.64,3.76a3.269,3.269,0,0,1-1.35.72c-3,.95-6.33.1-9.16-1.31s-5.35-3.39-8.14-4.88a43.357,43.357,0,0,0-4.55-2.06c-1.61-.65-3.84-1.07-4.74.41-.72,1.18,0,2.69.83,3.82a30.115,30.115,0,0,0,4.86,5.29c5.42,4.67,12.27,7.27,18.64,10.52a95.918,95.918,0,0,1,19.8,13.46,4.3,4.3,0,0,0,1-2.45c.48-2.55,2.59-7.71.46-9.92C896.63,437.74,893,437.58,891.71,433.86Z" transform="translate(-224.563 -139.696)" fill="#a0616a"/>
    <path id="Path_26" data-name="Path 26" d="M992,777.25a25.76,25.76,0,0,0,18.83,5.28c1.4-.17,3-.67,3.46-2a3.919,3.919,0,0,0-.26-2.4,42.677,42.677,0,0,1-2.43-7.8c-.35-2.43-.26-5.32-2.24-6.78-2.86-2.11-10.34-2-12.2,1.27C996.72,765.52,993.92,778.86,992,777.25Z" transform="translate(-263.239 -204.03)" fill="#3c354c"/>
    <path id="Path_27" data-name="Path 27" d="M1032.29,765.45a1.91,1.91,0,0,0,1.63,2.38,53.549,53.549,0,0,0,14.16,2.37l-1-9.62a1.49,1.49,0,0,0-1.59-1.62c-2.76-.46-8.56-2.33-11.21-1.37C1031.3,758.67,1032.35,762.58,1032.29,765.45Z" transform="translate(-263.239 -204.03)" fill="#3c354c"/>
    <path id="Path_28" data-name="Path 28" d="M1004.36,381.74a17,17,0,0,1,1.13,6.33c.25,7.75-1.08,16.12-6.48,21.68,6.06-1.81,12.87-.72,18.59-3.42,2.65-1.25,4.88-3.24,7.36-4.79,4.42-2.76,9.57-4.1,14.17-6.56s8.86-6.61,9.12-11.81c-2-2.1-5.21-2.4-7.83-3.67-2.82-1.38-4.91-3.9-6.9-6.33a50.539,50.539,0,0,1-6.14-8.71,16.91,16.91,0,0,1-2-10.3c-5.11.92-8.82,5.38-13.65,7.29-1.88.74-3.91,1.08-5.74,1.93-2.61,1.2-7.9,5.28-8,8.48C998,375.35,1003,378.66,1004.36,381.74Z" transform="translate(-263.239 -129.96)" fill="#a0616a"/>
    <path id="Path_29" data-name="Path 29" d="M1004.36,381.74a17,17,0,0,1,1.13,6.33c.25,7.75-1.08,16.12-6.48,21.68,6.06-1.81,12.87-.72,18.59-3.42,2.65-1.25,4.88-3.24,7.36-4.79,4.42-2.76,9.57-4.1,14.17-6.56s8.86-6.61,9.12-11.81c-2-2.1-5.21-2.4-7.83-3.67-2.82-1.38-4.91-3.9-6.9-6.33a50.539,50.539,0,0,1-6.14-8.71,16.91,16.91,0,0,1-2-10.3c-5.11.92-8.82,5.38-13.65,7.29-1.88.74-3.91,1.08-5.74,1.93-2.61,1.2-7.9,5.28-8,8.48C998,375.35,1003,378.66,1004.36,381.74Z" transform="translate(-263.239 -129.96)" opacity="0.1"/>
    <path id="Path_30" data-name="Path 30" d="M1070.15,583.7c-1.89,15.24-3.2,31.08-5.69,46.25-1,6.35.24,13-1.51,19.2-.75,2.65-2,5.14-2.55,7.83-.79,4.1.25,8.29,1,12.39,1.84,10.25,1.84,20.74,1.81,31.16,0,5.61,0,11.27-1.13,16.78-1.34,6.69-4.22,13-5.83,19.58-2.07,8.4-1.87,17.92-1.17,26.54-1.88-.68-4,0-5.78.85s-3.58,2-5.57,2.13c-2.69.25-5.22-1.17-7.54-2.55-1.78-1.05-3.33-2-5.1-3.08-1.73-15-3.46-30.06-3.39-45.17,0-8.78.69-17.58,0-26.34s-2.7-17.24-2.29-25.9c.19-3.94.86-7.82,1.31-11.73,1.48-12.66,1.28-24.8.39-37.51-.87.22-1.22,1.62-.9,2.45a12.55,12.55,0,0,0-3,4.11c-1.6,3.5-1.94,7.74-2.15,11.66l-1.29,24.47a32,32,0,0,1-.86,6.91c-.45,1.61-1.13,3.13-1.54,4.75-1.47,5.86.89,11.9,1.64,17.89.61,5,.09,10-.42,14.94l-3.21,31.12c-1.17,11.32-2.31,22.88,0,34,.15.69.3,1.39.48,2.09a14.494,14.494,0,0,1-1.68.38,21.55,21.55,0,0,1-6,0c-1.86-.19-3.74-.51-5.58-.73-4.42-.5-8.83-.69-11.76,2.65-4.46-20.22-8.94-40.75-7.75-61.42.42-7.28,1.54-14.51,2.31-21.76a226.939,226.939,0,0,0,1.08-33.79c-1-24.46-6-48.65-6.83-73.12-.17-5.22-.15-10.49-1.19-15.61-1.14-5.55-3.51-11-3.32-16.63s4.3-11.88,10-11.57c15.73.87,30.1-7.81,45.79-9.29,7.12-.68,14.36-1.69,21.41-.42s14.07,5.26,16.84,11.86c1.5,3.59,1.62,7.57,1.73,11.45C1071.23,561.6,1071.52,572.71,1070.15,583.7Z" transform="translate(-263.239 -204.03)" fill="#575a89"/>
    <path id="Path_31" data-name="Path 31" d="M991.13,775.67c-2.6,1.6-3.49,4.87-5,7.52-3.31,5.77-9.81,8.73-15.15,12.69-2.56,1.91-5.14,4.8-4.33,7.89,9.24,2.57,19.3,4.86,28.21,1.31,3.61-1.44,7-3.82,10.87-3.94,2.95-.09,6,1.15,8.77.3a3,3,0,0,0,1.74-1.15,4,4,0,0,0,.46-2,126.39,126.39,0,0,0-.07-14.17c-.28-4.61.34-7.87-4.92-7.67C1005.67,776.71,996.37,772.44,991.13,775.67Z" transform="translate(-263.239 -204.03)" fill="#cbceda"/>
    <path id="Path_32" data-name="Path 32" d="M1035.41,767.47a11.08,11.08,0,0,0-3.42-.77,6.35,6.35,0,0,0-4.91,3,18.479,18.479,0,0,0-2.22,5.52,11,11,0,0,0-.62,4.45c.39,2.86,2.92,5,3.59,7.82,1.21,5.09-4,10.58-1.62,15.26,1.51,3,5.3,3.84,8.61,4.36,5.06.8,10.81,1.43,14.79-1.8a9.33,9.33,0,0,0,3.4-7.25c-.06-3.68-2.27-6.95-3.27-10.49-1.39-5,.7-11.62-1.51-16.19C1046.34,767.47,1039.44,768.76,1035.41,767.47Z" transform="translate(-263.239 -204.03)" fill="#cbceda"/>
    <circle id="Ellipse_13" data-name="Ellipse 13" cx="25.99" cy="25.99" r="25.99" transform="translate(716.821 201.56)" fill="#a0616a"/>
    <path id="Path_33" data-name="Path 33" d="M1019.83,394.82a13.86,13.86,0,0,0-8.87-.67l-2.37-4.13c-1-1.82-2.49-3.88-4.58-3.8a4,4,0,0,0-3.31,2.79,13.224,13.224,0,0,0-.52,4.53,3,3,0,0,1-.91,2.61,3.189,3.189,0,0,1-1.26.38,32.132,32.132,0,0,1-4.89.48c-2.72,0-5.63-.66-8,.62s-3.47,4-4.62,6.5a40.251,40.251,0,0,1-6.5,9.78c-2.93,3.25-6.56,6.33-7.39,10.63-.35,1.83,1.31,3.19,2.63,4.51,5.25,5.21,12.57,8.41,16.46,14.71.91,1.47,1.65,3.13,3.05,4.14-.87,1.89,1,3.83,1.39,5.86a22.867,22.867,0,0,1,.11,4,35.681,35.681,0,0,0,1,5.79,53.457,53.457,0,0,1,.71,9.38l.17,10.52c.07,4.54.14,9.12-.85,13.55-1.35,6-4.65,11.75-4.39,17.92a6.63,6.63,0,0,1-.34,3.44c-2.73,5-4.88,10.54-7.81,15.48a16.4,16.4,0,0,0-2,3.88c-.78,2.85.82,5.94,3.18,7.72s5.34,2.51,8.24,3.06c26.94,5.16,54.91-1.05,80.37-11.25a5.34,5.34,0,0,0,1.83-1c1.86-1.81.4-4.86-.66-7.22-4-8.79-.81-19-1.38-28.6-.38-6.47-2.48-13-.9-19.32,1-4.22,3.67-7.86,5.52-11.8,2-4.27,3.12-9,5.74-12.9a39.128,39.128,0,0,1,6.83-7.2l16.25-14.48c-2.15-3.49-2.24-7.87-3.25-11.84-.88-3.42-2.63-6.56-3.68-9.92-1.46-4.68-1.66-10-4.68-13.83-1.19-1.53-2.74-2.72-4.07-4.13-1.52-1.62-2.72-3.51-4.27-5.1-4.49-4.6-11.26-6.06-17.65-6.68s-13-.65-18.92-3.21c-2.9-1.25-6-3.14-9-2.2-2.38.74-3.91,3.07-4.88,5.38s-1.65,4.8-3.24,6.73C1026.16,392.23,1022.69,393.75,1019.83,394.82Z" transform="translate(-263.239 -145.306)" fill="#3c354c"/>
    <path id="Path_34" data-name="Path 34" d="M942.5,446.7a13.94,13.94,0,0,1-3.64,4c-3,1.85-6.81.87-10.16-.17-9.29-2.89-18.64-5.79-27.31-10.2a2.16,2.16,0,0,0-1.46-.35,2,2,0,0,0-1,.72,42.513,42.513,0,0,0-3.75,4.81A11,11,0,0,0,893,450.9a8.4,8.4,0,0,0,2.89,6.29,24.929,24.929,0,0,0,6,3.79q16.59,8.28,33.4,16.13a5.91,5.91,0,0,0,2.33.72c2.28.05,3.73-2.32,5.55-3.68s4.21-1.74,6.38-2.46c3.92-1.29,7.33-3.75,10.67-6.18l10.68-7.76c9.36-6.8,19.19-14.21,23.28-25l-13-4.28c-3.9-1.29-8-3.25-12.05-4-3-.58-6.61,3.38-8.86,5.07a114.922,114.922,0,0,0-9.11,7.51C948.28,439.69,944.32,443.07,942.5,446.7Z" transform="translate(-263.239 -142.463)" fill="#3c354c"/>
    <path id="Path_35" data-name="Path 35" d="M1065.55,532.07c-3.67,1.46-7.83-.74-11.72-.09a16.151,16.151,0,0,0-5.14,2.13l-11.36,6.35c-.7.38-1.46,1.31-.85,1.81a1.22,1.22,0,0,0,.59.2c3.79.49,7.33-1.82,11.1-2.46a25.721,25.721,0,0,1,5-.19,2,2,0,0,1,.81.12,1.68,1.68,0,0,1,.84,1.59c0,.64-.19,1.26-.21,1.9a7,7,0,0,0,1.65,4,122.413,122.413,0,0,0,12,14.66,25.553,25.553,0,0,0,2.86-4.52l3.74-7c3.88-7.22,7.85-14.71,8.47-22.88-2.8-.89-8-3.84-10.89-2.29S1068.88,531,1065.55,532.07Z" transform="translate(-263.239 -158.722)" fill="#a0616a"/>
    <path id="Path_36" data-name="Path 36" d="M1002.76,348.08c7.32.78,14,4.24,20.55,7.64-1.12,1.76.3,4.29,2.29,4.89s4.17-.25,5.86-1.48,3.08-2.82,4.78-4c1.46-1,3.32-2.06,3.48-3.84s-1.52-3.15-2.57-4.63c-3.77-5.29.4-13.57-3.46-18.8-1.94-2.62-5.31-3.61-8.3-4.89-4.14-1.76-7.91-4.3-12.06-6.05s-8.93-2.66-13.11-1c-7.82,3.11-10.62,13.8-18.56,16.59a4,4,0,0,0-2.21,1.26c-1,1.52-2.25,10.51-2,12.36.38,3.09,1.23,4.23,4.27,5.15C988.22,353.22,995.8,347.33,1002.76,348.08Z" transform="translate(-263.239 -122.288)" fill="#3f3d56"/>
    <path id="Path_37" data-name="Path 37" d="M1097.53,431a20.771,20.771,0,0,1,5.35,7.74,65.7,65.7,0,0,1,2.26,8.64c1.37,5.62,3.63,11,4.84,16.64a46.56,46.56,0,0,1-3,28.68c-1.42,3.14-3.2,6.16-3.94,9.53-.28,1.29-.41,2.63-.78,3.9a20.84,20.84,0,0,1-2.52,5l-16.4,26.39a11.73,11.73,0,0,0-7-6.64,18.72,18.72,0,0,0-9.8-.59c1.22-1.92,1.76-4.07,3-6a33.536,33.536,0,0,0,1.87-3.18,33.041,33.041,0,0,0,1.46-3.65l2.15-6.07c2.52-7.09,5-14.18,7.21-21.38a100.923,100.923,0,0,0,3.16-12.8,8.792,8.792,0,0,0,.08-3.35,10.427,10.427,0,0,0-1.52-3.06,91.291,91.291,0,0,1-6.19-12.64c-1.3-3.05-2.61-6.48-1.44-9.58a12.15,12.15,0,0,1,3.22-4.26A95.144,95.144,0,0,1,1097.53,431Z" transform="translate(-263.239 -148.952)" fill="#3c354c"/>
    <path id="Path_38" data-name="Path 38" d="M1014.19,768.88l1.2-2.47c-2.3-11.1-1.16-22.66,0-34l3.21-31.12c.51-5,1-10,.42-14.94-.75-6-3.11-12-1.64-17.89.41-1.62,1.09-3.14,1.54-4.75a32,32,0,0,0,.86-6.91l1.29-24.47c.21-3.92.55-8.16,2.15-11.66V620l-4.12-35.46-10.88,184.34Z" transform="translate(-263.239 -204.03)" opacity="0.1"/>
    <path id="Path_39" data-name="Path 39" d="M920.6,784.17c3-5.51-.4-12.27-4.29-17.18s-8.61-10-8.51-16.29c.15-9,9.7-14.31,17.33-19.09a84,84,0,0,0,15.56-12.51,22.8,22.8,0,0,0,4.78-6.4c1.58-3.52,1.54-7.52,1.44-11.37q-.51-19.26-1.91-38.49" transform="translate(-233.297 -204.03)" fill="none" stroke="#3f3d56" stroke-miterlimit="10" stroke-width="4"/>
    <path id="Path_40" data-name="Path 40" d="M959.51,662.14a14,14,0,0,0-7-11.5l-3.14,6.22.1-7.53a14.219,14.219,0,0,0-4.63-.56,14,14,0,1,0,14.68,13.37Z" transform="translate(-263.239 -179.227)" fill="#57b894"/>
    <path id="Path_41" data-name="Path 41" d="M934.48,757.13a14,14,0,1,1,.68-11.3L926.39,753l9.65-2.23A14,14,0,0,1,934.48,757.13Z" transform="translate(-231.697 -204.03)" fill="#57b894"/>
    <path id="Path_42" data-name="Path 42" d="M927.55,729.88a14,14,0,0,1-4.45-27.53l-.08,5.78,3.18-6.29h0a14,14,0,0,1,14.67,13.36,13.839,13.839,0,0,1-.6,4.79A14,14,0,0,1,927.55,729.88Z" transform="translate(-263.239 -204.03)" fill="#57b894"/>
    <path id="Path_43" data-name="Path 43" d="M961.62,707.21a14,14,0,1,1,6.21-26.27l-2.48,6.8,5.1-4.9a14,14,0,0,1,4.53,9.69,13.788,13.788,0,0,1-.35,3.87,14,14,0,0,1-13.01,10.81Z" transform="translate(-263.239 -204.03)" fill="#57b894"/>
    <path id="Path_44" data-name="Path 44" d="M957.62,665.88c-3.24.35-6.39,1.36-9.64,1.56s-6.82-.57-8.88-3.1c-1.1-1.36-1.66-3.08-2.59-4.57a10,10,0,0,0-3.54-3.33,14,14,0,1,0,26.24,9.32Q958.42,665.79,957.62,665.88Z" transform="translate(-263.239 -179.455)" opacity="0.1"/>
    <path id="Path_45" data-name="Path 45" d="M961.62,707.21a14,14,0,0,1-13.35-20,10.37,10.37,0,0,1,2.82,2.82c1,1.51,1.61,3.26,2.78,4.64,2.19,2.57,5.92,3.41,9.31,3.26s6.66-1.12,10-1.43c.47,0,.94-.07,1.42-.08a14,14,0,0,1-12.98,10.79Z" transform="translate(-263.239 -204.03)" opacity="0.1"/>
    <path id="Path_46" data-name="Path 46" d="M927.55,729.88a14,14,0,0,1-13.46-19.76,11.48,11.48,0,0,1,3,2.85c1.09,1.54,1.77,3.32,3.05,4.74,2.37,2.63,6.35,3.56,9.93,3.48s6.83-.93,10.28-1.2a14,14,0,0,1-12.8,9.89Z" transform="translate(-263.239 -204.03)" opacity="0.1"/>
    <path id="Path_47" data-name="Path 47" d="M934.48,757.13a14.017,14.017,0,1,1-25.59-11.45,13.84,13.84,0,0,1,3.08,2.75c1.34,1.62,2.22,3.47,3.76,5,2.87,2.82,7.5,4,11.63,4.09a59.978,59.978,0,0,0,7.12-.39Z" transform="translate(-231.458 -204.03)" opacity="0.1"/>
    <path id="Path_48" data-name="Path 48" d="M899.43,777.82s11.08-.34,14.42-2.72,17-5.21,17.86-1.4,16.65,19,4.15,19.06-29.06-1.94-32.4-4S899.43,777.82,899.43,777.82Z" transform="translate(-232.103 -204.03)" fill="#656380"/>
    <path id="Path_49" data-name="Path 49" d="M936.08,791.44c-12.51.1-29.06-2-32.39-4-2.54-1.55-3.55-7.09-3.89-9.65h-.37s.7,8.94,4,11,19.89,4.07,32.4,4c3.61,0,4.85-1.31,4.78-3.21C940.14,790.7,938.77,791.41,936.08,791.44Z" transform="translate(-232.097 -204.03)" opacity="0.2"/>
    <path id="Path_50" data-name="Path 50" d="M144.4,795.17c-3-5.51.4-12.27,4.29-17.18s8.61-10,8.51-16.29c-.15-9-9.7-14.31-17.33-19.09a84,84,0,0,1-15.56-12.51,22.8,22.8,0,0,1-4.78-6.4c-1.58-3.52-1.54-7.52-1.44-11.37q.51-19.26,1.91-38.49" transform="translate(-86 -204.03)" fill="none" stroke="#3f3d56" stroke-miterlimit="10" stroke-width="4"/>
    <path id="Path_51" data-name="Path 51" d="M105.49,673.14a14,14,0,0,1,7-11.5l3.14,6.22-.1-7.53a14.218,14.218,0,0,1,4.63-.56,14,14,0,1,1-14.68,13.37Z" transform="translate(-86 -181.139)" fill="#57b894"/>
    <path id="Path_52" data-name="Path 52" d="M130.52,768.13a14,14,0,1,0-.68-11.3l8.77,7.13L129,761.73a14,14,0,0,0,1.52,6.4Z" transform="translate(-86 -204.03)" fill="#57b894"/>
    <path id="Path_53" data-name="Path 53" d="M137.45,740.88a14,14,0,0,0,4.45-27.53l.08,5.78-3.18-6.29h0a14,14,0,0,0-14.67,13.36,13.84,13.84,0,0,0,.6,4.79,14,14,0,0,0,12.72,9.89Z" transform="translate(-86 -204.03)" fill="#57b894"/>
    <path id="Path_54" data-name="Path 54" d="M103.38,718.21a14,14,0,1,0-6.21-26.27l2.48,6.8-5.1-4.9A14,14,0,0,0,90,703.53a13.789,13.789,0,0,0,.35,3.87,14,14,0,0,0,13.03,10.81Z" transform="translate(-86 -204.03)" fill="#57b894"/>
    <path id="Path_55" data-name="Path 55" d="M107.38,676.88c3.24.35,6.39,1.36,9.64,1.56s6.82-.57,8.88-3.1c1.1-1.36,1.66-3.08,2.59-4.57a10,10,0,0,1,3.54-3.33,14,14,0,1,1-26.24,9.32Q106.58,676.79,107.38,676.88Z" transform="translate(-86 -181.346)" opacity="0.1"/>
    <path id="Path_56" data-name="Path 56" d="M103.38,718.21a14,14,0,0,0,13.35-20,10.37,10.37,0,0,0-2.82,2.82c-1,1.51-1.61,3.26-2.78,4.64-2.19,2.57-5.92,3.41-9.31,3.26s-6.66-1.12-10-1.43c-.47,0-.94-.07-1.42-.08a14,14,0,0,0,12.98,10.79Z" transform="translate(-86 -204.03)" opacity="0.1"/>
    <path id="Path_57" data-name="Path 57" d="M137.45,740.88a14,14,0,0,0,13.46-19.76,11.48,11.48,0,0,0-3,2.85c-1.09,1.54-1.77,3.32-3,4.74-2.37,2.63-6.35,3.56-9.93,3.48s-6.83-.93-10.28-1.2a14,14,0,0,0,12.75,9.89Z" transform="translate(-86 -204.03)" opacity="0.1"/>
    <path id="Path_58" data-name="Path 58" d="M130.52,768.13a14.017,14.017,0,0,0,25.59-11.45,13.84,13.84,0,0,0-3.08,2.75c-1.34,1.62-2.22,3.47-3.76,5-2.87,2.82-7.5,4-11.63,4.09a59.978,59.978,0,0,1-7.12-.39Z" transform="translate(-86 -204.03)" opacity="0.1"/>
    <path id="Path_59" data-name="Path 59" d="M165.57,788.82s-11.08-.34-14.42-2.72-17-5.21-17.86-1.4-16.65,19-4.15,19.06,29.06-1.94,32.4-4S165.57,788.82,165.57,788.82Z" transform="translate(-86 -204.03)" fill="#656380"/>
    <path id="Path_60" data-name="Path 60" d="M128.92,802.44c12.51.1,29.06-2,32.39-4,2.54-1.55,3.55-7.09,3.89-9.65h.37s-.7,8.94-4,11-19.89,4.07-32.4,4c-3.61,0-4.85-1.31-4.78-3.21C124.86,801.7,126.23,802.41,128.92,802.44Z" transform="translate(-86 -204.03)" opacity="0.2"/>
  </g>
</svg>
